<svg xmlns:xlink="http://www.w3.org/1999/xlink" xmlns="http://www.w3.org/2000/svg" version="1.1">
 <g fill="none" stroke="black" stroke-width="0.5" transform="none">
   <path d="M 206.617,707.726 C 219.273,716.398 229.117,721.085 238.258,726.945 C 244.586,726.007 250.679,725.539 256.539,727.179 C 264.976,720.148 276.93,715.226 290.055,707.257 C 271.774,701.398 230.054,699.757 206.617,707.726 Z"/>
   <path d="M 238.727,727.179 C 243.883,728.351 249.976,728.351 256.07,727.414"/>
   <path d="M 230.992,703.039 C 230.757,692.493 236.542,683.64 241.229,680.359 C 245.129,678.784 250.68,678.898 255.133,680.07 C 261.226,684.054 264.976,693.429 265.679,702.804"/>
   <path d="M 235.211,702.804 C 235.836,701.32 235.759,699.263 237.086,698.351 C 239.954,697.309 243.198,698.156 246.254,698.059"/>
   <path d="M 261.179,702.559 C 260.804,701.109 260.935,699.351 260.054,698.209 C 258.104,697.609 254.954,697.659 252.404,697.384"/>
   <path d="M 211.454,711.034 C 214.679,708.484 219.704,707.509 224.729,707.134"/>
   <path d="M 223.82,718.508 C 225.988,716.793 229.367,716.138 232.745,715.886"/>
   <path d="M 219.929,716.097 C 222.264,714.251 225.902,713.545 229.54,713.273"/>
   <path d="M 215.675,713.595 C 218.455,711.397 222.786,710.556 227.118,710.233"/>
   <path d="M 228.304,721.004 C 230.126,719.563 232.965,719.012 235.804,718.8"/>
   <path d="M 280.023,709.932 C 278.125,708.646 275.168,708.155 272.211,707.966"/>
   <path d="M 267.046,717.451 C 265.771,716.586 263.782,716.256 261.794,716.129"/>
   <path d="M 270.536,715.036 C 269.162,714.105 267.021,713.748 264.88,713.611"/>
   <path d="M 274.914,712.648 C 273.278,711.54 270.73,711.116 268.18,710.954"/>
   <path d="M 264.258,719.46 C 263.186,718.733 261.515,718.455 259.844,718.348"/>
   <path d="M 237.3,680.088 C 237.69,680.886 238.526,682.071 239.363,681.776 C 237.867,680.28 237.582,676.901 240.582,675.963 C 243.643,675.006 248.353,672.691 250.519,670.526 C 248.925,669.307 247.05,668.65 246.488,667.713 C 244.537,671.592 237.113,669.401 237.113,672.401 C 237.113,675.077 238.05,677.195 237.3,680.088 Z"/>
   <path d="M 256.484,681.059 C 258.794,680.923 259.266,678.344 257.716,676.173 C 255.372,672.891 249.845,670.218 246.949,668.038 C 235.028,659.063 235.657,636.401 235.957,623.261 C 235.897,617.621 236.157,613.061 236.257,607.961"/>
   <path d="M 258.622,678.997 C 259.372,676.297 260.699,673.3 260.009,672.416 C 256.147,670.597 251.583,668.005 248.619,666.303 C 237.888,660.141 237.466,635.532 237.888,623.11 C 237.757,617.861 238.001,612.97 238.057,607.901"/>
   <path d="M 237.121,671.771 C 233.156,669.128 228.698,667.328 224.539,665.399 C 222.157,664.294 218.219,658.107 218.14,653.963 C 217.913,642.042 217.544,619.859 218.219,613.812 C 219.5,612.751 226.646,607.671 227.729,606.589"/>
   <path d="M 260.258,672.437 C 264.223,669.794 266.911,669.034 271.07,667.105 C 273.452,666 277.39,659.813 277.469,655.669 C 277.696,643.748 278.065,621.565 277.39,615.518 C 276.109,614.457 267.236,608.678 266.153,607.596"/>
   <path d="M 254.95,679.829 C 255.185,677.954 255.278,676.595 256.45,675.048"/>
   <path d="M 241.075,680.485 C 241.075,679.08 240.747,677.345 240.513,676.22"/>
   <path d="M 228.476,649.657 C 227.448,635.234 227.539,613.473 227.656,597.887 C 233.063,595.73 246.93,586.663 247.403,586.782 C 247.907,586.908 266.013,597.396 266.013,597.891"/>
   <path d="M 266.353,649.618 C 266.797,635.008 266.562,612.418 265.976,597.653"/>
   <path d="M 227.622,609.657 C 234.672,607.257 258.297,606.01 266.247,609.61"/>
   <path d="M 227.722,607.539 C 234.772,605.139 258.397,603.892 266.347,607.492"/>
   <path d="M 239.266,607.681 C 239.629,607.13 240.121,605.982 240.56,605.579 C 240.682,605.467 241.908,607.259 242.341,607.548"/>
   <path d="M 239.356,605.647 C 239.206,604.841 238.175,600.472 237.931,598.859 C 238.175,598.034 238.276,597.831 238.644,597.116 C 239.113,600.247 239.638,602.534 240.406,605.516"/>
   <path d="M 241.661,605.424 C 241.811,604.618 241.784,601.345 242.028,599.732 C 241.784,598.907 241.683,598.704 241.315,597.989 C 240.846,601.12 241.379,602.311 240.611,605.293"/>
   <path d="M 236.243,605.771 C 236.243,601.058 236.356,597.876 236.356,593.387"/>
   <path d="M 238.058,605.617 C 238.058,601.065 237.997,596.872 237.997,592.301"/>
   <path d="M 265.122,597.095 C 265.122,585.075 262.939,557.15 262.939,545.549 C 259.424,544.377 253.549,543.959 250.789,542.099 C 250.639,548.249 248.187,569.001 247.867,575.538 C 246.877,569.021 245.089,547.469 244.789,542.849 C 242.089,544.109 234.709,545.699 231.589,545.999 C 231.589,562.954 228.922,581.073 228.462,597.538"/>
   <path d="M 231.803,534.715 C 233.51,534.715 240.053,533.965 241.117,534.461 C 241.715,534.74 243.006,536.046 243.697,536.441 C 243.262,535.271 241.903,534.029 240.972,533.532 C 238.764,533.483 233.288,533.632 231.923,533.755 C 231.788,534.28 231.816,534.132 231.803,534.715 Z"/>
   <path d="M 233.096,533.566 C 233.096,532.962 233.072,532.089 233.142,531.527 C 233.682,531.48 240.994,531.152 241.791,531.363 C 241.791,532.18 241.767,533.348 241.767,534.105"/>
   <path d="M 243.349,535.701 C 243.349,534.891 243.411,534.092 243.349,533.526 C 242.998,533.409 242.7,533.496 242.002,533.496"/>
   <path d="M 231.944,534.743 C 232.24,534.922 232.626,535.093 232.832,535.28 C 232.875,535.577 232.642,536.238 232.883,536.605 C 233.712,537.868 238.727,537.717 239.993,537.085 C 240.643,536.759 241.763,536.305 241.553,534.805"/>
   <path d="M 242.093,535.285 C 241.793,536.995 239.822,537.475 238.253,537.475"/>
   <path d="M 243.19,536.141 C 243.286,537.788 243.172,541.635 243.172,543.322"/>
   <path d="M 237.003,545.047 C 237.003,542.975 237.083,538.808 235.803,537.528"/>
   <path d="M 264.339,534.704 C 262.632,534.704 256.089,533.954 255.025,534.45 C 254.427,534.729 253.136,536.035 252.445,536.43 C 252.88,535.26 254.239,534.018 255.17,533.521 C 257.378,533.472 262.854,533.621 264.219,533.744 C 264.354,534.269 264.326,534.121 264.339,534.704 Z"/>
   <path d="M 263.046,533.555 C 263.046,532.951 263.07,532.078 263,531.516 C 262.46,531.469 255.148,531.141 254.351,531.352 C 254.351,532.169 254.375,533.337 254.375,534.094"/>
   <path d="M 252.793,535.69 C 252.793,534.88 252.731,534.081 252.793,533.515 C 253.144,533.398 253.442,533.485 254.14,533.485"/>
   <path d="M 264.198,534.732 C 263.902,534.911 263.516,535.082 263.31,535.269 C 263.267,535.566 263.5,536.227 263.259,536.594 C 262.43,537.857 257.415,537.706 256.149,537.074 C 255.499,536.748 254.379,536.294 254.589,534.794"/>
   <path d="M 254.049,535.274 C 254.349,536.984 256.32,537.464 257.889,537.464"/>
   <path d="M 252.952,536.13 C 252.856,537.777 252.97,541.624 252.97,543.311"/>
   <path d="M 259.109,544.653 C 259.109,542.581 259.059,538.797 260.339,537.517"/>
   <path d="M 271.043,610.975 C 271.043,608.535 271.253,607.525 271.373,605.215 C 271.253,603.565 269.514,599.113 268.624,596.488 C 268.46,596.533 268.239,596.635 267.923,596.785 C 268.137,598.972 268.553,602.365 267.683,602.545 C 267.683,603.459 267.596,606.879 267.76,608.754"/>
   <path d="M 268.248,602.241 C 268.857,602.358 268.973,604.617 268.973,605.335"/>
   <path d="M 221.892,611.097 C 221.892,608.657 221.665,608.551 221.545,606.241 C 221.665,604.591 223.404,600.139 224.294,597.514 C 224.458,597.559 224.679,597.661 224.995,597.811 C 224.781,599.998 224.365,603.391 225.235,603.571 C 225.235,604.485 225.197,606.902 225.033,608.777"/>
   <path d="M 224.67,603.267 C 224.061,603.384 223.945,605.643 223.945,606.361"/>
 </g>
</svg>
